<svg xmlns="http://www.w3.org/2000/svg" width="728" height="728" viewBox="0 0 728 728">
  <g id="add" transform="translate(-1360 837)">
    <rect id="Rectangle_2" data-name="Rectangle 2" width="728" height="728" transform="translate(1360 -837)" fill="#fff" opacity="0"/>
    <g id="add_book" transform="translate(1468 -729)">
      <path id="Path_8" data-name="Path 8" d="M381.59,428.5A19.952,19.952,0,0,1,374,430H97.211A36,36,0,0,0,107.5,500.5H381.59A20,20,0,0,0,394,482V428.5Zm0,0" transform="translate(0 0)" fill="#fff"/>
      <path id="Path_9" data-name="Path 9" d="M471.188,199.984a90.224,90.224,0,0,0-3.367-11.926,63.384,63.384,0,0,0-40.633-6.074,90.643,90.643,0,0,0-33.633-53.406,90.6,90.6,0,0,0-99.867,71.437A63.325,63.325,0,0,0,261.121,307.6c.07,0,.141,0,.211,0H438.664a63.321,63.321,0,0,0,44.215-108.66c-.074,0-.145-.008-.215-.008a63.5,63.5,0,0,0-11.477,1.043Zm0,0" transform="translate(0 0)" fill="#fff"/>
      <path id="Path_10" data-name="Path 10" d="M369.828,307.609H266.336a63.337,63.337,0,0,1-11.648-125.594A90.652,90.652,0,0,1,394,125.3V30a20,20,0,0,0-20-20H103.516A35.984,35.984,0,0,0,84,42V430h19.516A35.819,35.819,0,0,1,120,426H385.965A19.944,19.944,0,0,0,394,410V307.609Zm0,0" transform="translate(0 0)" fill="#8342b4"/>
      <path id="Path_11" data-name="Path 11" d="M306.563,266.262,330,242.828v109.84h40V242.828l23.438,23.434,28.281-28.285L350,166.258l-71.719,71.719Zm0,0" transform="translate(0 0)" fill="#efa31d"/>
      <path id="Path_12" data-name="Path 12" d="M74,83.672a10,10,0,1,0,7.07,2.93A10.03,10.03,0,0,0,74,83.672Zm0,0" transform="translate(0 0)"/>
      <path id="Path_13" data-name="Path 13" d="M438.668,170.941c-1.324,0-2.648.039-3.973.109A100.492,100.492,0,0,0,404,124.3V30A30.033,30.033,0,0,0,374,0H46A46.054,46.054,0,0,0,0,46V466a46.054,46.054,0,0,0,46,46H374a30.033,30.033,0,0,0,30-30V317.609h34.668a73.334,73.334,0,0,0,0-146.668ZM384,410a10.009,10.009,0,0,1-10,10H287.5a10,10,0,0,0,0,20H374a29.859,29.859,0,0,0,10-1.719V482a10.009,10.009,0,0,1-10,10H46a26,26,0,0,1,0-52H202a10,10,0,0,0,0-20H84V133.5a10,10,0,0,0-20,0V420H46a45.737,45.737,0,0,0-26,8.078V46A26.03,26.03,0,0,1,46,20H374a10.009,10.009,0,0,1,10,10v80.891a100.036,100.036,0,0,0-45.562-11,101.056,101.056,0,0,0-97.02,73.8A73.342,73.342,0,0,0,261.332,317.61H320v35.055a10,10,0,0,0,10,10h40a10,10,0,0,0,10-10V317.61h4ZM366.172,233.59A10,10,0,0,0,360,242.828v99.84H340v-99.84a10,10,0,0,0-17.07-7.074l-16.363,16.367-14.145-14.145L350,180.4l57.578,57.578-14.145,14.145L377.07,235.754a9.995,9.995,0,0,0-10.9-2.164Zm72.5,64.019H380V266.969l6.363,6.367a10.008,10.008,0,0,0,14.145,0l28.281-28.285a10,10,0,0,0,0-14.145L357.07,159.188a10,10,0,0,0-14.141,0l-71.719,71.719a10,10,0,0,0,0,14.145l28.281,28.285a10.008,10.008,0,0,0,14.145,0L320,266.969v30.641H261.332a53.337,53.337,0,0,1-9.816-105.762,10,10,0,0,0,7.961-7.8A80.671,80.671,0,0,1,417.4,184.02a10,10,0,0,0,11.59,7.8,53.337,53.337,0,1,1,9.68,105.789Zm0,0" transform="translate(0 0)"/>
      <path id="Path_14" data-name="Path 14" d="M244,420a10,10,0,1,0,7.07,2.93A10.08,10.08,0,0,0,244,420Zm0,0" transform="translate(0 0)"/>
    </g>
  </g>
</svg>
