<svg xmlns="http://www.w3.org/2000/svg" width="728" height="728" viewBox="0 0 728 728">
  <g id="stock" transform="translate(-2490 837)">
    <rect id="Rectangle_3" data-name="Rectangle 3" width="728" height="728" transform="translate(2490 -837)" fill="#fff" opacity="0"/>
    <g id="see_book" transform="translate(2598 -702)">
      <path id="Path_15" data-name="Path 15" d="M46,23V323a9.966,9.966,0,0,0,2.863,7H80a10,10,0,0,0,10-10V20a9.966,9.966,0,0,0-2.863-7H56A10,10,0,0,0,46,23Zm0,0" transform="translate(0)" fill="#fff"/>
      <path id="Path_16" data-name="Path 16" d="M308.418,320V20a10,10,0,0,0-10-10h-24a10,10,0,0,0-10,10V320a10,10,0,0,0,10,10h24A10,10,0,0,0,308.418,320Zm0,0" transform="translate(0)" fill="#fff"/>
      <path id="Path_17" data-name="Path 17" d="M492,10H461.02A9.968,9.968,0,0,0,457,18V318a10,10,0,0,0,10,10h30.98a9.968,9.968,0,0,0,4.02-8V20A10,10,0,0,0,492,10Zm0,0" transform="translate(0)" fill="#efa31d"/>
      <path id="Path_18" data-name="Path 18" d="M130,100.875v212.25A21.837,21.837,0,0,0,137.953,330h68.59a21.876,21.876,0,0,0,21.875-21.875V95.875A21.828,21.828,0,0,0,220.461,79H151.875A21.874,21.874,0,0,0,130,100.875Zm0,0" transform="translate(0 0)" fill="#efa31d"/>
      <path id="Path_19" data-name="Path 19" d="M90,122H228.418V283H90Zm0,0" transform="translate(0 0)" fill="#fff"/>
      <path id="Path_20" data-name="Path 20" d="M261.418,59h47V283h-47Zm0,0" transform="translate(0)" fill="#efa31d"/>
      <path id="Path_21" data-name="Path 21" d="M45,58H90V283H45Zm0,0" transform="translate(0)" fill="#8342b4"/>
      <path id="Path_22" data-name="Path 22" d="M422,58h80V283H422Zm0,0" transform="translate(0)" fill="#fff"/>
      <g id="Group_1" data-name="Group 1" transform="translate(64 147.777)">
        <path id="Path_23" data-name="Path 23" d="M377.613,147.777l-31.539,8.449a10,10,0,0,0-7.07,12.25l41.8,156,31.535-8.453a9.995,9.995,0,0,0,7.07-12.246Zm0,0" transform="translate(-64 -147.777)" fill="#8342b4"/>
        <path id="Path_24" data-name="Path 24" d="M64,330H502v64H64Zm0,0" transform="translate(-64 -147.777)" fill="#8342b4"/>
        <path id="Path_25" data-name="Path 25" d="M64,394h48v54H64Zm0,0" transform="translate(-64 -147.777)" fill="#8342b4"/>
        <path id="Path_26" data-name="Path 26" d="M400,394h48v54H400Zm0,0" transform="translate(-64 -147.777)" fill="#8342b4"/>
      </g>
      <path id="Path_27" data-name="Path 27" d="M191.207,202a32,32,0,1,1-32-32A32,32,0,0,1,191.207,202Zm0,0" transform="translate(0 0)" fill="#8342b4"/>
      <path id="Path_28" data-name="Path 28" d="M492,0H432a20.024,20.024,0,0,0-20,20V237.48L382.484,127.32a20,20,0,0,0-24.5-14.141l-39.57,10.6V20a20.024,20.024,0,0,0-20-20h-60a20.024,20.024,0,0,0-20,20V66.3A31.706,31.706,0,0,0,206.543,64H111.875A31.691,31.691,0,0,0,100,66.3V20A20.024,20.024,0,0,0,80,0H20A20.024,20.024,0,0,0,0,20V320a19.865,19.865,0,0,0,.891,5.895A9.943,9.943,0,0,0,0,330v64a10,10,0,0,0,10,10H54v44a10,10,0,0,0,10,10h48a10,10,0,0,0,10-10V404H390v44a10,10,0,0,0,10,10h48a10,10,0,0,0,10-10V404h44a10,10,0,0,0,10-10V330a9.943,9.943,0,0,0-.891-4.105A19.865,19.865,0,0,0,512,320V219a10,10,0,0,0-20,0v53H432V68h60v59a10,10,0,0,0,20,0V20A20.024,20.024,0,0,0,492,0ZM363.164,132.5l46.59,173.867-42.5,11.391-46.59-173.867ZM347.148,320h-28.73V212.773ZM80,95.875V272H20V68H80ZM20,292H80v28H20Zm80,16.125V292H218.418v16.125A11.89,11.89,0,0,1,206.543,320H111.875A11.89,11.89,0,0,1,100,308.125ZM238.418,68h60V272h-60Zm0,240.125V292h60v28h-60ZM298.418,20V48h-60V20ZM111.875,84h94.668a11.89,11.89,0,0,1,11.875,11.875V272H100V132h49.5a10,10,0,1,0,0-20H100V95.875A11.89,11.89,0,0,1,111.875,84ZM80,20V48H20V20Zm22,418H74V404h28Zm336,0H410V404h28Zm54-54H20V340H492Zm0-92v28H432V292ZM432,48V20h60V48Zm0,0" transform="translate(0)"/>
      <path id="Path_29" data-name="Path 29" d="M502,164.98a10,10,0,1,0,7.07,2.93A10.08,10.08,0,0,0,502,164.98Zm0,0" transform="translate(0 0)"/>
      <path id="Path_30" data-name="Path 30" d="M188.758,132h.316a10,10,0,0,0,0-20h-.316a10,10,0,0,0,0,20Zm0,0" transform="translate(0 0)"/>
      <path id="Path_31" data-name="Path 31" d="M159.207,160a42,42,0,1,0,42,42A42.048,42.048,0,0,0,159.207,160Zm0,64a22,22,0,1,1,22-22A22.025,22.025,0,0,1,159.207,224Zm0,0" transform="translate(0 0)"/>
    </g>
  </g>
</svg>
