<svg xmlns="http://www.w3.org/2000/svg" width="728" height="728" viewBox="0 0 728 728">
  <g id="adventure" transform="translate(-138 1543)">
    <rect id="Rectangle_4" data-name="Rectangle 4" width="728" height="728" transform="translate(138 -1543)" fill="#fff" opacity="0"/>
    <g id="adventure-2" data-name="adventure" transform="translate(246 -1435)">
      <path id="Path_32" data-name="Path 32" d="M298,13.587C182.15,33.519,94,134.459,94,256A245.976,245.976,0,0,0,297.977,498.419C413.84,478.5,502,377.551,502,256S413.853,33.519,298,13.587Z" transform="translate(-0.001)" fill="#8342b4"/>
      <path id="Path_33" data-name="Path 33" d="M207.975,305.268,98.189,352.575a246.386,246.386,0,0,0,120.385,125.5l8.4-15.257h14.068a28.425,28.425,0,0,0,28.425-28.425v-13.8a28.42,28.42,0,0,1,5.475-16.771L235.99,345.64Z" transform="translate(-0.001)" fill="#8342b4"/>
      <g id="Group_2" data-name="Group 2" transform="translate(126.84 14.143)">
        <path id="Path_34" data-name="Path 34" d="M402.889,400.649l6.32-74.857-59.4-69a24.674,24.674,0,0,0-9.185-2.133l-11.013-.4a24.676,24.676,0,0,1-23.3-29.544l8.582-42.489a24.653,24.653,0,0,1,18.432-19.1c6.444-1.541,13.965-3.333,20.568-4.892A24.869,24.869,0,0,0,372.838,136.7l.123-1.054C378,92.33,332.407,61.107,293.847,81.479l-13.275,7.014a24.911,24.911,0,0,1-4.218,1.69c27.763,3.463,50.947,28.586,47.274,60.131l-.123,1.054A24.87,24.87,0,0,1,304.56,172.91c-6.6,1.559-14.124,3.352-20.568,4.892a24.652,24.652,0,0,0-18.432,19.1l-8.582,42.489a24.675,24.675,0,0,0,23.3,29.544l11.013.4a24.674,24.674,0,0,1,9.185,2.133l59.4,69-6.32,74.857c-1.456,22.972,12.594,40.884,30.956,47.856l3.529.418a246.977,246.977,0,0,0,31.314-23.669A46.938,46.938,0,0,1,402.889,400.649Z" transform="translate(-126.841 -14.143)" fill="#fff"/>
        <path id="Path_35" data-name="Path 35" d="M246.012,74.635a13.57,13.57,0,0,0-8.736-13.171l-61.1-23.246v-6.27a245.385,245.385,0,0,1,34.708-17.805,244.552,244.552,0,0,0-84.041,32.472v6.27l61.1,23.246A13.57,13.57,0,0,1,196.679,89.3a24.676,24.676,0,0,0,34.56,13.859l13.275-7.014a54.581,54.581,0,0,1,18.065-5.875A24.612,24.612,0,0,1,246.012,74.635Z" transform="translate(-126.841 -14.143)" fill="#fff"/>
      </g>
      <g id="Group_3" data-name="Group 3" transform="translate(176.173 10.001)">
        <path id="Path_36" data-name="Path 36" d="M262.579,90.271a24.522,24.522,0,0,0,13.774-.088A52.748,52.748,0,0,0,262.579,90.271Z" transform="translate(-176.174 -10.001)" fill="#a5dc69"/>
        <path id="Path_37" data-name="Path 37" d="M502,256C502,120.139,391.863,10,256,10a247.13,247.13,0,0,0-45.119,4.141,245.489,245.489,0,0,0-34.708,17.8v6.27l61.1,23.246a13.57,13.57,0,0,1,8.736,13.171A24.6,24.6,0,0,0,262.579,90.27a52.791,52.791,0,0,1,13.774-.088,24.828,24.828,0,0,0,4.218-1.69l13.275-7.014C332.4,61.106,378,92.328,372.96,135.646l-.123,1.054a24.87,24.87,0,0,1-18.945,21.542c-6.6,1.559-14.124,3.352-20.568,4.892a24.652,24.652,0,0,0-18.432,19.1L306.31,224.72a24.675,24.675,0,0,0,23.3,29.544l11.013.4a24.674,24.674,0,0,1,9.185,2.133l59.4,69-6.32,74.857a46.942,46.942,0,0,0,16.465,39.272A245.366,245.366,0,0,0,502,256Z" transform="translate(-176.174 -10.001)" fill="#8342b4"/>
      </g>
      <path id="Path_38" data-name="Path 38" d="M121.4,421.872l49.846-63.86h-.053A91.012,91.012,0,0,0,118.771,210.83,91.013,91.013,0,0,0,70.429,356.538h-.006Z" transform="translate(-0.001)" fill="#efa31d"/>
      <g id="Group_4" data-name="Group 4" transform="translate(53 10)">
        <circle id="Ellipse_1" data-name="Ellipse 1" cx="48" cy="48" r="48" transform="translate(0 243.54)" fill="#fff"/>
        <path id="Path_39" data-name="Path 39" d="M408.91,130.444A73.836,73.836,0,0,1,447.168,12.48,73.835,73.835,0,0,0,370.91,130.444H370.9l57.264,73.4,19-24.348L408.9,130.444Z" transform="translate(-53.001 -10)" fill="#fff"/>
      </g>
      <path id="Path_40" data-name="Path 40" d="M485.116,130.828A73.842,73.842,0,0,0,447.168,12.48,73.836,73.836,0,0,0,408.91,130.444H408.9l38.268,49.05,37.986-48.666Z" transform="translate(-0.001)" fill="#efa31d"/>
      <circle id="Ellipse_2" data-name="Ellipse 2" cx="32.13" cy="32.13" r="32.13" transform="translate(396.04 52.88)" fill="#fff"/>
      <path id="Path_41" data-name="Path 41" d="M15.084,205.012a9.991,9.991,0,0,0,12.152-7.234l.344-1.341a10,10,0,0,0-19.352-5.051q-.192.735-.378,1.474A10,10,0,0,0,15.084,205.012Z" transform="translate(-0.001)"/>
      <path id="Path_42" data-name="Path 42" d="M29.1,160.271a9.993,9.993,0,0,0,13.309-4.78,235.966,235.966,0,0,1,79.849-93.722,10,10,0,0,0,1.025.462l61.1,23.245a3.571,3.571,0,0,1,2.3,3.467,10.029,10.029,0,0,0,.548,3.643A34.676,34.676,0,0,0,235.8,112.061l.111-.058,13.276-7.014a44.173,44.173,0,0,1,64.508,44.17l-.123,1.053a14.84,14.84,0,0,1-11.31,12.966c-6.612,1.562-14.143,3.356-20.6,4.9a34.765,34.765,0,0,0-25.909,26.843l-8.582,42.489a34.676,34.676,0,0,0,32.742,41.517l11.013.4a14.6,14.6,0,0,1,5.463,1.27,10,10,0,1,0,8.164-18.258,34.52,34.52,0,0,0-12.907-3l-11.013-.4a14.675,14.675,0,0,1-13.857-17.571l8.582-42.489a14.7,14.7,0,0,1,10.956-11.351c6.436-1.539,13.946-3.328,20.54-4.886a35.087,35.087,0,0,0,26.581-30.119l.123-1.053a64.173,64.173,0,0,0-93.718-64.165l-13.214,6.981a14.682,14.682,0,0,1-19.988-6.976A23.564,23.564,0,0,0,191.5,66.784L143.733,48.612A235.629,235.629,0,0,1,331.951,32.487a10,10,0,1,0,6.434-18.938A256.162,256.162,0,0,0,24.319,146.962,10,10,0,0,0,29.1,160.271Z" transform="translate(-0.001)"/>
      <path id="Path_43" data-name="Path 43" d="M489.686,178.275a10,10,0,0,0-6.847,12.374,237.536,237.536,0,0,1-1.671,136.258,10,10,0,1,0,19.078,6,257.543,257.543,0,0,0,1.813-147.787A10,10,0,0,0,489.686,178.275Z" transform="translate(-0.001)"/>
      <path id="Path_44" data-name="Path 44" d="M474.108,370.539a10.033,10.033,0,0,0-13.819,3.708l-.057.1a10.006,10.006,0,1,0,13.876-3.8Z" transform="translate(-0.001)"/>
      <path id="Path_45" data-name="Path 45" d="M446.029,412.553a10,10,0,0,0-14.121.782,235.9,235.9,0,0,1-45.948,39.612c-11.532-5.207-23.613-17.552-22.43-36.9l6.31-74.748a10,10,0,1,0-19.929-1.682l-6.319,74.857c-.006.069-.011.139-.016.208a57.593,57.593,0,0,0,22.852,49.829,235.57,235.57,0,0,1-142.871,25.245l9.327-16.936h8.159A38.468,38.468,0,0,0,279.468,434.4v-13.8a18.3,18.3,0,0,1,3.549-10.871,10,10,0,1,0-16.147-11.8,38.18,38.18,0,0,0-7.4,22.672v13.8a18.446,18.446,0,0,1-18.425,18.425H226.976A10,10,0,0,0,218.217,458l-15.39,27.945a234.755,234.755,0,0,1-61.776-23.777,10,10,0,0,0-9.757,17.459,256.133,256.133,0,0,0,315.517-52.95A10,10,0,0,0,446.029,412.553Z" transform="translate(-0.001)"/>
      <path id="Path_46" data-name="Path 46" d="M428.168,127.139a42.127,42.127,0,1,0-42.127-42.128A42.175,42.175,0,0,0,428.168,127.139Zm0-64.255a22.128,22.128,0,1,1-22.127,22.127A22.152,22.152,0,0,1,428.168,62.884Z" transform="translate(-0.001)"/>
      <path id="Path_47" data-name="Path 47" d="M179.523,363.618A101.158,101.158,0,0,0,201.169,313l26.6,38.342a10,10,0,0,0,16.432-11.4l-43.781-63.1a9.978,9.978,0,0,0-1.554-1.745,101,101,0,1,0-176.4,88.5l.071.093,70.578,90.463A10,10,0,0,0,101,458h0a10,10,0,0,0,7.883-3.847l70.241-89.989C179.265,363.986,179.4,363.8,179.523,363.618ZM162.783,352.6,101,431.746l-62.5-80.105c-.1-.143-.212-.282-.324-.42a81,81,0,1,1,125.3.422A9.718,9.718,0,0,0,162.783,352.6Z" transform="translate(-0.001)"/>
      <path id="Path_48" data-name="Path 48" d="M101,243.542a58,58,0,1,0,58,58A58.066,58.066,0,0,0,101,243.542Zm0,96a38,38,0,1,1,38-38A38.043,38.043,0,0,1,101,339.542Z" transform="translate(-0.001)"/>
      <path id="Path_49" data-name="Path 49" d="M362.962,136.52l.058.075,57.264,73.4a10,10,0,0,0,7.883,3.849h0a10,10,0,0,0,7.883-3.847l56.991-73.013c.123-.157.24-.316.352-.479a83.836,83.836,0,1,0-130.432.018ZM428.168,20a63.835,63.835,0,0,1,49.238,104.459,9.833,9.833,0,0,0-.651.883L428.17,187.586l-49.2-63.061c-.1-.135-.2-.269-.31-.4A63.831,63.831,0,0,1,428.168,20Z" transform="translate(-0.001)"/>
      <path id="Path_50" data-name="Path 50" d="M189.945,412.525l-4.521,2.136a10,10,0,1,0,8.543,18.083l4.521-2.136a10,10,0,1,0-8.543-18.083Z" transform="translate(-0.001)"/>
      <path id="Path_51" data-name="Path 51" d="M428.168,254.1a10,10,0,0,0-10,10,34.551,34.551,0,0,1-.217,3.865,10,10,0,0,0,8.813,11.06,10.135,10.135,0,0,0,1.135.064,10,10,0,0,0,9.924-8.878,54.631,54.631,0,0,0,.344-6.111A10,10,0,0,0,428.168,254.1Z" transform="translate(-0.001)"/>
      <path id="Path_52" data-name="Path 52" d="M358.258,298a10,10,0,1,0,0,20h5a10,10,0,0,0,0-20Z" transform="translate(-0.001)"/>
      <path id="Path_53" data-name="Path 53" d="M401.874,293.077a34.059,34.059,0,0,1-3.406,1.817,10,10,0,1,0,8.4,18.15,54.225,54.225,0,0,0,5.406-2.884,10,10,0,1,0-10.4-17.083Z" transform="translate(-0.001)"/>
      <path id="Path_54" data-name="Path 54" d="M251.065,359.523l-2.683,4.22a10,10,0,1,0,16.877,10.731l2.683-4.22a10,10,0,1,0-16.877-10.731Z" transform="translate(-0.001)"/>
      <path id="Path_55" data-name="Path 55" d="M289.011,318.475a10,10,0,0,0-13.8,3.073l-2.682,4.219A10,10,0,1,0,289.4,336.5l2.682-4.219A10,10,0,0,0,289.011,318.475Z" transform="translate(-0.001)"/>
      <path id="Path_56" data-name="Path 56" d="M230.634,393.3l-4.521,2.136a10,10,0,1,0,8.543,18.083l4.521-2.136a10,10,0,1,0-8.543-18.083Z" transform="translate(-0.001)"/>
      <path id="Path_57" data-name="Path 57" d="M313.258,298a10,10,0,1,0,0,20h5a10,10,0,0,0,0-20Z" transform="translate(-0.001)"/>
    </g>
  </g>
</svg>
