<svg xmlns="http://www.w3.org/2000/svg" width="728" height="728" viewBox="0 0 728 728">
  <g id="buy" transform="translate(-148 837)">
    <rect id="Rectangle_1" data-name="Rectangle 1" width="728" height="728" transform="translate(148 -837)" fill="#fff" opacity="0"/>
    <g id="Buy_book" transform="translate(256 -729)">
      <path id="Path_1" data-name="Path 1" d="M374,430H46a36,36,0,0,0,0,72H374a20,20,0,0,0,20-20V410A20,20,0,0,1,374,430Zm0,0" transform="translate(0 0)" fill="#fff"/>
      <path id="Path_2" data-name="Path 2" d="M405.633,95.168a129.021,129.021,0,0,0-15.266,252.664A129.021,129.021,0,0,0,405.633,95.168Zm0,0" transform="translate(0 0)" fill="#efa31d"/>
      <path id="Path_3" data-name="Path 3" d="M372,347A129,129,0,1,1,394,90.875V30a20,20,0,0,0-20-20H97.516A35.984,35.984,0,0,0,78,42V430H97.516A35.819,35.819,0,0,1,114,426H385.965A19.944,19.944,0,0,0,394,410V345.125A130.024,130.024,0,0,1,372,347Zm0,0" transform="translate(0 0)" fill="#8342b4"/>
      <path id="Path_4" data-name="Path 4" d="M74,61.66a10,10,0,1,0,7.07,2.93A10.08,10.08,0,0,0,74,61.66Zm0,0" transform="translate(0 0)"/>
      <path id="Path_5" data-name="Path 5" d="M512,220c0-65.992-46.227-121.387-108-135.512V30A30.033,30.033,0,0,0,374,0H46A46.054,46.054,0,0,0,0,46V466a46.054,46.054,0,0,0,46,46H374a30.033,30.033,0,0,0,30-30V355.512C465.773,341.387,512,285.992,512,220ZM384,410a10.009,10.009,0,0,1-10,10H261.668a10,10,0,0,0,0,20H374a29.859,29.859,0,0,0,10-1.719V482a10.009,10.009,0,0,1-10,10H46a26,26,0,0,1,0-52H173a10,10,0,0,0,0-20H84V112.34a10,10,0,1,0-20,0V420H46a45.737,45.737,0,0,0-26,8.078V46A26.03,26.03,0,0,1,46,20H374a10.009,10.009,0,0,1,10,10V81.434q-5.443-.428-11-.434c-76.645,0-139,62.355-139,139s62.355,139,139,139q5.555,0,11-.434Zm-11-71A119,119,0,1,1,492,220,119.134,119.134,0,0,1,373,339Zm0,0" transform="translate(0 0)"/>
      <path id="Path_6" data-name="Path 6" d="M394.223,191.262a10,10,0,1,0,20,0c0-17.93-13.312-33.02-31.223-37.187v-2.934a10,10,0,1,0-20,0v2.934c-17.91,4.164-31.223,19.254-31.223,37.188S345.09,224.281,363,228.449V264.1c-6.672-3.094-11.223-9.176-11.223-16.164a10,10,0,1,0-20,0c0,17.93,13.313,33.02,31.223,37.187v4.02a10,10,0,0,0,20,0v-4.02c17.91-4.168,31.223-19.258,31.223-37.187S400.91,214.91,383,210.742V175.1C389.672,178.192,394.223,184.274,394.223,191.262Zm-42.445,0c0-6.988,4.551-13.07,11.223-16.164v32.328c-6.672-3.094-11.223-9.176-11.223-16.164Zm42.445,56.672c0,6.988-4.551,13.07-11.223,16.164V231.77c6.672,3.094,11.223,9.176,11.223,16.164Zm0,0" transform="translate(0 0)"/>
      <path id="Path_7" data-name="Path 7" d="M220.328,420a10,10,0,1,0,7.07,2.93A10.084,10.084,0,0,0,220.328,420Zm0,0" transform="translate(0 0)"/>
    </g>
  </g>
</svg>
