<svg xmlns="http://www.w3.org/2000/svg" width="728" height="728" viewBox="0 0 728 728">
  <g id="comedy" transform="translate(-1310 1543)">
    <rect id="Rectangle_5" data-name="Rectangle 5" width="728" height="728" transform="translate(1310 -1543)" fill="#fff" opacity="0"/>
    <g id="comedy-2" data-name="comedy" transform="translate(1418 -1435)">
      <path id="Path_58" data-name="Path 58" d="M254.656,472.727c29.234-35.449,40.621-98.168,39.367-161.457-39.891-12.82-62.164-58.332-71.25-113.852a389.478,389.478,0,0,0-78.734,11.07c-23.457,11.379-44.406,24.734-58.395,38.719,3.063,11.418,6.824,23.215,11.215,35.156,31.062,84.527,93.363,176.223,157.8,190.363Zm0,0" transform="translate(0.001 0)" fill="#efa31d" fill-rule="evenodd"/>
      <path id="Path_59" data-name="Path 59" d="M502,87.34c-19.613-19.613-52.91-37.992-87.633-51.41-34.387-4.7-69.117-4.887-94.086,1.8-2.875,10.734-5.383,22.074-7.477,33.812-8.469,47.5-10.2,101.52-2.523,148.4h.012c5.887,35.961,17.313,67.707,35.469,89.105C414.586,283.2,478.723,174.206,502,87.339Zm0,0" transform="translate(0.001 0)" fill="#9100ff" fill-rule="evenodd"/>
      <path id="Path_60" data-name="Path 60" d="M509.07,80.27c-31.93-31.934-90.809-56-131.523-66.914C345.867,4.871,310.238,0,279.789,0c-19.2,0-35.883,1.863-49.605,5.539a10.008,10.008,0,0,0-7.07,7.07c-2.937,10.961-5.457,22.406-7.555,34.144-.078.344-.137.7-.184,1.047-8.145,46.184-9.727,96.785-4.086,140.164a403.693,403.693,0,0,0-76.836,12.652c-40.711,10.91-99.59,34.977-131.523,66.914a9.99,9.99,0,0,0-2.59,9.656c3.191,11.914,7.09,24.066,11.57,36.242,0,.016.012.031.016.047,15.445,41.941,37.926,84.2,63.223,118.031C102.6,468.226,145.825,512,195.864,512a82.094,82.094,0,0,0,21.277-2.8c30.539-8.184,54.523-33.684,69.363-73.746,11.293-30.492,17.309-68.875,17.582-111.613a82.3,82.3,0,0,0,12.051.9c50.035,0,93.262-43.773,120.715-80.492,32.656-43.68,60.621-101.367,74.809-154.316a10,10,0,0,0-2.59-9.66ZM211.965,489.883a62.337,62.337,0,0,1-16.1,2.117c-32.582,0-69.762-25.738-104.7-72.465-22.9-30.633-43.379-68.473-58.023-106.453,5.391-4.184,14.008-10.684,22.938-16.711a10,10,0,1,0-11.184-16.578c-6.93,4.672-13.57,9.535-18.84,13.52q-2.6-7.834-4.816-15.586c24.918-22.391,71.457-45.215,118.395-57.789A382.256,382.256,0,0,1,214.466,207.8,246.386,246.386,0,0,0,227.352,253c.023.059.047.121.074.184Q228.2,255.113,229,257c.027.066.059.137.09.2a162.48,162.48,0,0,0,9.008,17.98c.043.074.086.148.129.227.012.02.023.035.035.059.188.316.367.648.559.965.4.664.813,1.3,1.219,1.953.262.422.523.844.785,1.262q.85,1.33,1.715,2.621c.281.418.563.832.844,1.246.594.859,1.188,1.711,1.793,2.547.254.352.508.688.762,1.031.656.883,1.313,1.762,1.98,2.617.074.09.148.18.223.273q1.969,2.5,4.035,4.816a32.02,32.02,0,0,1-52.816-3.9,10,10,0,0,0-17.32,10,52.021,52.021,0,0,0,84.856,7.492,83.848,83.848,0,0,0,10.16,6.445c.145.082.289.164.438.242.918.484,1.848.953,2.781,1.4.258.129.52.254.781.375q1.348.639,2.719,1.227c.109.047.219.1.332.148.336,74.8-18.328,157.23-72.145,171.652ZM420.832,232.27c-34.937,46.73-72.117,72.469-104.7,72.469a62.168,62.168,0,0,1-16.1-2.117c-.969-.258-1.922-.547-2.863-.852-.027-.012-.059-.02-.086-.031-43.246-13.906-58.934-72.344-64.434-105.938-.012-.074-.031-.145-.047-.219-.1-.605-.2-1.2-.289-1.8-6.477-41.223-5.7-90.48,1.633-135.926,6.754-.926,17.465-2.254,28.238-3.008a10,10,0,1,0-1.4-19.949c-8.3.578-16.449,1.469-22.988,2.277q1.465-6.926,3.145-13.66c10.969-2.336,24-3.52,38.844-3.52,28.777,0,62.52,4.621,92.578,12.676,46.938,12.574,93.477,35.4,118.395,57.789-14,49.027-39.887,101.621-69.93,141.8Zm0,0" transform="translate(0.001 0)"/>
      <path id="Path_61" data-name="Path 61" d="M355.977,155.023a10,10,0,1,0,17.32,10,32.035,32.035,0,0,1,55.488,0,10,10,0,1,0,17.32-10,52.034,52.034,0,0,0-90.129,0Zm0,0" transform="translate(0.001 0)"/>
      <path id="Path_62" data-name="Path 62" d="M303.656,144.7a10,10,0,1,0,20,0A52.037,52.037,0,0,0,245.6,99.637a10,10,0,0,0,10,17.32A32.037,32.037,0,0,1,303.656,144.7Zm0,0" transform="translate(0.001 0)"/>
      <path id="Path_63" data-name="Path 63" d="M349.047,226.906a32.035,32.035,0,0,1-53.6-14.363,10,10,0,1,0-19.316,5.18,52.181,52.181,0,0,0,36.8,36.793,51.613,51.613,0,0,0,13.4,1.762,52.194,52.194,0,0,0,36.863-15.23,10,10,0,1,0-14.145-14.141Zm0,0" transform="translate(0.001 0)"/>
      <path id="Path_64" data-name="Path 64" d="M133.391,301.258h0a10,10,0,0,0-10,10A32.035,32.035,0,0,1,75.332,339a10,10,0,0,0-10,17.32,52.039,52.039,0,0,0,78.059-45.062,10,10,0,0,0-10-10Zm0,0" transform="translate(0.001 0)"/>
      <path id="Path_66" data-name="Path 66" d="M288.336,54.922l.477.074a10,10,0,1,0,3.164-19.75c-.246-.039-.5-.078-.746-.113a10,10,0,1,0-2.895,19.789Zm0,0" transform="translate(0.001 0)"/>
      <path id="Path_67" data-name="Path 67" d="M75.07,284.066a10.01,10.01,0,0,0,3.7-.715l.4-.156a10,10,0,1,0-7.066-18.711c-.246.094-.5.191-.75.293a10,10,0,0,0,3.711,19.289Zm0,0" transform="translate(0.001 0)"/>
      <path id="Path_79" data-name="Path 79" d="M349.047,226.906a32.035,32.035,0,0,1-53.6-14.363,10,10,0,1,0-19.316,5.18,52.181,52.181,0,0,0,36.8,36.793,51.613,51.613,0,0,0,13.4,1.762,52.194,52.194,0,0,0,36.863-15.23,10,10,0,1,0-14.145-14.141Zm0,0" transform="matrix(0.848, -0.53, 0.53, 0.848, -197.484, 398.136)"/>
    </g>
  </g>
</svg>
