<svg xmlns="http://www.w3.org/2000/svg" width="728" height="728" viewBox="0 0 728 728">
  <g id="drama" transform="translate(-2490 1543)">
    <rect id="Rectangle_6" data-name="Rectangle 6" width="728" height="728" transform="translate(2490 -1543)" fill="#fff" opacity="0"/>
    <g id="drama-2" data-name="drama" transform="translate(2598 -1435)">
      <path id="Path_68" data-name="Path 68" d="M397.381,183.367a157.892,157.892,0,0,0-51.695,280.665c4.3.388,8.646.6,13.046.6a143.147,143.147,0,0,0,44.719-7.128l36.3,36.3q4.1-.045,8.154-.293V433.492a143.293,143.293,0,0,0-50.525-250.125Z" transform="translate(0 -0.047)" fill="#efa31d"/>
      <path id="Path_69" data-name="Path 69" d="M193.463,14.342a147.993,147.993,0,0,0-58.489,257.973V304.2a148.889,148.889,0,0,0,23,1.79c1.823,0,3.634-.045,5.441-.11L173.894,295.4a147.07,147.07,0,0,0,19.562,6.3,148,148,0,0,0,.007-287.355Z" transform="translate(0 -0.047)" fill="#9100ff"/>
      <path id="Path_70" data-name="Path 70" d="M358.73,168.089A152.751,152.751,0,0,0,315.1,174.4a158.924,158.924,0,0,0,.846-16.382,156.3,156.3,0,0,0-17.263-71.875,10,10,0,0,0-17.8,9.11,136.463,136.463,0,0,1,15.067,62.764c0,76.08-61.9,137.974-137.974,137.974a137.22,137.22,0,0,1-51.339-9.874,10.007,10.007,0,0,0-10.793,2.21L73.986,310.181V272.316a10,10,0,0,0-3.644-7.72A137.6,137.6,0,0,1,20,158.018C20,81.938,81.891,20.044,157.97,20.044a137.233,137.233,0,0,1,68.84,18.372A10,10,0,1,0,236.8,21.1,157.22,157.22,0,0,0,157.971.047C70.866.047,0,70.913,0,158.018A157.478,157.478,0,0,0,53.99,276.942v57.376a10,10,0,0,0,17.068,7.07l34.361-34.361a158.328,158.328,0,0,0,100.59,1.484c-.357,4.272-.547,8.56-.547,12.845a151.843,151.843,0,0,0,15.28,66.789,10,10,0,1,0,17.992-8.725,131.992,131.992,0,0,1-13.277-58.063A134.462,134.462,0,0,1,227.175,300,158.64,158.64,0,0,0,311.1,196.858a132.447,132.447,0,0,1,47.626-8.773C432.216,188.085,492,247.871,492,321.357a132.689,132.689,0,0,1-50.329,104.314,9.992,9.992,0,0,0-3.77,7.821v44.326l-27.387-27.387A10,10,0,0,0,400.328,448a133.693,133.693,0,0,1-99.569-6.6,10,10,0,0,0-8.71,18,153.735,153.735,0,0,0,108.575,9.418l40.208,40.208a10,10,0,0,0,17.068-7.07v-63.74A152.51,152.51,0,0,0,512,321.356C512,236.845,443.243,168.089,358.73,168.089Z" transform="translate(0 -0.047)"/>
      <path id="Path_71" data-name="Path 71" d="M265,416.1a10,10,0,1,0-14.076,14.2c.353.35.707.7,1.063,1.042A10,10,0,1,0,265.919,417C265.611,416.7,265.307,416.4,265,416.1Z" transform="translate(0 -0.047)"/>
      <path id="Path_72" data-name="Path 72" d="M259.35,64.427a9.975,9.975,0,0,0,7.319,3.244,10.172,10.172,0,0,0,6.916-2.729,10.177,10.177,0,1,0-14.325-.612Z" transform="translate(0 -0.047)"/>
      <path id="Path_73" data-name="Path 73" d="M114.479,123.516a9.994,9.994,0,1,0,2.929,7.068A10.057,10.057,0,0,0,114.479,123.516Z" transform="translate(0 -0.047)"/>
      <path id="Path_74" data-name="Path 74" d="M215.6,137.652a10.006,10.006,0,1,0-7.069,2.929A10.072,10.072,0,0,0,215.6,137.652Z" transform="translate(0 -0.047)"/>
      <path id="Path_75" data-name="Path 75" d="M157.971,182.234a47.024,47.024,0,0,1,45.361,34.855,10,10,0,0,1-19.319,5.161,26.948,26.948,0,0,0-52.084,0,10,10,0,0,1-19.319-5.161A47.024,47.024,0,0,1,157.971,182.234Z" transform="translate(0 -0.047)"/>
      <path id="Path_76" data-name="Path 76" d="M309.853,284.615a10,10,0,1,0,7.068,2.929A10.072,10.072,0,0,0,309.853,284.615Z" transform="translate(0 -0.047)"/>
      <path id="Path_77" data-name="Path 77" d="M414.673,301.682a9.992,9.992,0,1,0-7.069,2.93A10.072,10.072,0,0,0,414.673,301.682Z" transform="translate(0 -0.047)"/>
      <path id="Path_78" data-name="Path 78" d="M358.73,344.221a45.792,45.792,0,0,0-44.173,33.941,10,10,0,1,0,19.319,5.161,25.718,25.718,0,0,1,49.707,0,10,10,0,0,0,19.319-5.161A45.789,45.789,0,0,0,358.73,344.221Z" transform="translate(0 -0.047)"/>
    </g>
  </g>
</svg>
